<svg xmlns="http://www.w3.org/2000/svg" xmlns:xlink="http://www.w3.org/1999/xlink" fill="none" version="1.1" width="1236" height="360" viewBox="0 0 1236 360"><defs><clipPath id="master_svg0_207_77"><rect x="0" y="0" width="360" height="360" rx="0"/></clipPath></defs><g><g clip-path="url(#master_svg0_207_77)"><g transform="matrix(0.952150821685791,0.3056286573410034,-0.3056286573410034,0.952150821685791,41.074554988643285,-12.356591382437273)"><path d="M189.50207247924806,140.93216103515624Q253.83607247924806,141.41096103515625,313.6810724792481,132.76991103515624L312.25207247924806,122.87255103515625Q253.15507247924805,131.40565103515624,189.57707247924805,130.93239103515626Q125.99847247924805,130.45911103515624,60.787286479248046,120.06242103515625L59.21285847924805,129.93770103515624Q125.16917247924805,140.45326103515626,189.50207247924806,140.93216103515624Z" fill-rule="evenodd" fill="#3068B7" fill-opacity="1"/></g><g transform="matrix(1,-1.2434351326362503e-9,-5.479718456768978e-9,1,0.0000013425310214643105,7.460613460352761e-8)"><path d="M300.0000305175781,250L60.000030517578125,250L60.000030517578125,240L300.0000305175781,240L300.0000305175781,250Z" fill-rule="evenodd" fill="#23C8D2" fill-opacity="1"/></g><g transform="matrix(0.952150821685791,0.3056286573410034,-0.3056286573410034,0.952150821685791,46.06563445190113,-13.127617008605739)"><path d="M191.0050078125,160.79568232421875Q238.5620078125,157.67048232421874,312.62300781249996,145.48808232421874L311.00000781250003,135.62068232421876Q237.4200078125,147.72394232421874,190.34900781250002,150.81718232421875Q143.2672078125,153.91128232421875,65.0943938125,151.77808232421876L64.8216218125,161.77438232421875Q143.45930781250001,163.92018232421876,191.0050078125,160.79568232421875Z" fill-rule="evenodd" fill="#FBBF24" fill-opacity="1"/></g><g transform="matrix(0.952150821685791,0.3056286573410034,-0.3056286573410034,0.952150821685791,49.97135930622608,-14.338440172054106)"><path d="M193.18683203125,179.78964638671874Q219.89083203125,177.05274638671875,312.56083203125,157.31282638671874L310.47783203125,147.53226638671876Q218.33583203125,167.15984638671875,192.16683203125,169.84174638671874L70.25278703125,182.71504638671874L71.30287703125,192.65974638671875L193.18683203125,179.78964638671874Z" fill-rule="evenodd" fill="#CA5BF2" fill-opacity="1"/></g><g transform="matrix(0.952150821685791,0.3056286573410034,-0.3056286573410034,0.952150821685791,53.87710752440762,-15.549412568245316)"><path d="M195.71314453125,198.71641044921876Q219.92714453125,193.58321044921874,312.50414453125,169.12485044921874L309.95014453125,159.45657044921876Q217.61114453125,183.85191044921874,193.64014453125,188.93381044921875L75.57147453125,213.70511044921875L77.62481453125,223.49201044921875L195.71314453125,198.71641044921876Z" fill-rule="evenodd" fill="#F5775B" fill-opacity="1"/></g><g><path d="M312.502,110.4282Q312.502,110.0354,312.476,109.6434Q312.451,109.2514,312.399,108.8619Q312.348,108.4724,312.271,108.0871Q312.195,107.7018,312.093,107.3224Q311.991,106.9429,311.865,106.5709Q311.739,106.1989,311.588,105.836Q311.438,105.4731,311.264,105.1207Q311.091,104.7684,310.894,104.4282Q310.698,104.088,310.48,103.7614Q310.261,103.4347,310.022,103.1231Q309.783,102.8114,309.524,102.5161Q309.265,102.2207,308.987,101.9429Q308.709,101.6651,308.414,101.4061Q308.119,101.1471,307.807,100.908Q307.495,100.6688,307.169,100.4506Q306.842,100.2323,306.502,100.0359L186,30.464100000000002Q185.66,30.26768,185.307,30.09393Q184.955,29.920189999999998,184.592,29.769849999999998Q184.229,29.61952,183.857,29.49325Q183.485,29.36697,183.106,29.2653Q182.726,29.16362,182.341,29.08698Q181.956,29.01034,181.566,28.95907Q181.177,28.90779,180.785,28.8821Q180.393,28.85641,180,28.85641Q179.607,28.85641,179.215,28.8821Q178.823,28.90779,178.434,28.95907Q178.044,29.01034,177.659,29.08698Q177.274,29.16362,176.894,29.2653Q176.515,29.36697,176.143,29.49325Q175.771,29.61952,175.408,29.769849999999998Q175.045,29.920189999999998,174.693,30.09393Q174.34,30.26768,174,30.464100000000002L53.4981,100.0359Q53.1579,100.2323,52.8313,100.4506Q52.504599999999996,100.6688,52.193,100.908Q51.881299999999996,101.1471,51.586,101.4061Q51.2906,101.6652,51.0128,101.9429Q50.7351,102.2207,50.476,102.5161Q50.217,102.8114,49.977900000000005,103.1231Q49.7387,103.4347,49.5205,103.7614Q49.3022,104.088,49.1058,104.4282Q48.909400000000005,104.7684,48.735600000000005,105.1208Q48.5619,105.4731,48.4116,105.836Q48.2612,106.199,48.1349,106.5709Q48.008700000000005,106.9429,47.907,107.3224Q47.8053,107.7018,47.7287,108.0871Q47.652,108.4724,47.6008,108.8619Q47.549499999999995,109.2514,47.5238,109.6434Q47.4981,110.0354,47.4981,110.4282L47.4981,249.572Q47.4981,249.965,47.5238,250.357Q47.549499999999995,250.749,47.6008,251.138Q47.652100000000004,251.528,47.7287,251.913Q47.8053,252.298,47.907,252.678Q48.008700000000005,253.057,48.135000000000005,253.429Q48.2612,253.801,48.4116,254.164Q48.5619,254.527,48.735600000000005,254.879Q48.909400000000005,255.232,49.1058,255.572Q49.3022,255.912,49.5205,256.23900000000003Q49.7387,256.565,49.977900000000005,256.877Q50.217,257.18899999999996,50.476,257.48400000000004Q50.7351,257.779,51.0128,258.057Q51.2906,258.33500000000004,51.586,258.594Q51.881299999999996,258.853,52.193,259.092Q52.504599999999996,259.331,52.8313,259.549Q53.1579,259.76800000000003,53.4981,259.964L174,329.536Q174.34,329.732,174.693,329.906Q175.045,330.08,175.408,330.23Q175.771,330.38,176.143,330.507Q176.515,330.633,176.894,330.735Q177.274,330.836,177.659,330.913Q178.044,330.99,178.434,331.041Q178.823,331.092,179.215,331.118Q179.607,331.144,180,331.144Q180.393,331.144,180.785,331.118Q181.177,331.092,181.566,331.041Q181.956,330.99,182.341,330.913Q182.726,330.836,183.106,330.735Q183.485,330.633,183.857,330.507Q184.229,330.38,184.592,330.23Q184.955,330.08,185.307,329.906Q185.66,329.732,186,329.536L306.502,259.964Q306.842,259.76800000000003,307.169,259.549Q307.495,259.331,307.807,259.092Q308.119,258.853,308.414,258.594Q308.709,258.33500000000004,308.987,258.057Q309.265,257.779,309.524,257.48400000000004Q309.783,257.18899999999996,310.022,256.877Q310.261,256.565,310.48,256.23900000000003Q310.698,255.912,310.894,255.572Q311.091,255.232,311.264,254.879Q311.438,254.527,311.588,254.164Q311.739,253.801,311.865,253.429Q311.991,253.057,312.093,252.678Q312.195,252.298,312.271,251.913Q312.348,251.528,312.399,251.138Q312.451,250.749,312.476,250.357Q312.502,249.965,312.502,249.572L312.502,110.4282ZM296.502,112.7376L180,45.4752L63.4981,112.7376L63.4981,247.262L180,314.525L296.502,247.262L296.502,112.7376Z" fill-rule="evenodd" fill="#C12E8C" fill-opacity="1"/></g><g><ellipse cx="180" cy="44" rx="24" ry="24" fill="#C12E8C" fill-opacity="1"/></g><g><ellipse cx="180" cy="314" rx="24" ry="24" fill="#C12E8C" fill-opacity="1"/></g><g><ellipse cx="61" cy="250" rx="24" ry="24" fill="#C12E8C" fill-opacity="1"/></g><g><ellipse cx="304" cy="250" rx="24" ry="24" fill="#C12E8C" fill-opacity="1"/></g><g><ellipse cx="61" cy="108" rx="24" ry="24" fill="#C12E8C" fill-opacity="1"/></g><g><ellipse cx="304" cy="108" rx="24" ry="24" fill="#C12E8C" fill-opacity="1"/></g></g><g><path d="M513.62,260.52C531.98,260.52,547.8199999999999,253.5,557,244.5L557,184.38L509.48,184.38L509.48,206.16L533.06,206.16L533.06,232.44C529.46,235.68,522.8,237.48,516.5,237.48C490.22,237.48,477.08,220.02,477.08,191.04C477.08,162.42000000000002,492.2,145.14,514.52,145.14C526.4,145.14,533.96,150,540.62,156.3L554.84,139.38C546.2,130.56,532.88,122.28,513.62,122.28C478.15999999999997,122.28,449.72,148.01999999999998,449.72,191.94C449.72,236.4,477.44,260.52,513.62,260.52ZM638.36,238.74C618.56,238.74,606.14,220.74,606.14,190.68C606.14,162.24,618.56,145.14,638.36,145.14C658.16,145.14,670.76,162.24,670.76,190.68C670.76,220.74,658.16,238.74,638.36,238.74ZM681.38,294.18C691.1,294.18,699.2,292.56,703.88,290.22L699.02,270.6C695.24,271.86,690.2,272.94,684.44,272.94C672.38,272.94,660.3199999999999,268.62,654.2,258.53999999999996C680.66,251.7,697.94,227.22,697.94,190.68C697.94,147.48000000000002,673.64,122.28,638.36,122.28C603.08,122.28,578.78,147.48000000000002,578.78,190.68C578.78,228.84,597.6800000000001,253.86,626.12,259.44C635.12,279.6,654.2,294.18,681.38,294.18ZM724.04,258L804.86,258L804.86,235.68L750.6800000000001,235.68L750.6800000000001,124.62L724.04,124.62L724.04,258ZM874.1600000000001,260.52C909.44,260.52,933.74,234.06,933.74,190.68C933.74,147.48000000000002,909.44,122.28,874.1600000000001,122.28C838.88,122.28,814.5799999999999,147.48000000000002,814.5799999999999,190.68C814.5799999999999,234.06,838.88,260.52,874.1600000000001,260.52ZM874.1600000000001,237.48C854.36,237.48,841.94,219.12,841.94,190.68C841.94,162.24,854.36,145.14,874.1600000000001,145.14C893.96,145.14,906.56,162.24,906.56,190.68C906.56,219.12,893.96,237.48,874.1600000000001,237.48ZM1012.76,260.52C1048.04,260.52,1072.3400000000001,234.06,1072.3400000000001,190.68C1072.3400000000001,147.48000000000002,1048.04,122.28,1012.76,122.28C977.48,122.28,953.18,147.48000000000002,953.18,190.68C953.18,234.06,977.48,260.52,1012.76,260.52ZM1012.76,237.48C992.96,237.48,980.54,219.12,980.54,190.68C980.54,162.24,992.96,145.14,1012.76,145.14C1032.56,145.14,1045.1599999999999,162.24,1045.1599999999999,190.68C1045.1599999999999,219.12,1032.56,237.48,1012.76,237.48ZM1098.44,258L1122.38,258L1122.38,202.38C1122.38,189.6,1120.22,171.24,1118.96,158.64L1119.6799999999998,158.64L1130.3,189.96L1151,245.94L1166.3,245.94L1186.8200000000002,189.96L1197.62,158.64L1198.52,158.64C1197.08,171.24,1195.1,189.6,1195.1,202.38L1195.1,258L1219.4,258L1219.4,124.62L1189.88,124.62L1167.56,187.26C1164.8600000000001,195.36,1162.52,204.18,1159.6399999999999,212.64L1158.74,212.64C1156.04,204.18,1153.52,195.36,1150.6399999999999,187.26L1127.96,124.62L1098.44,124.62L1098.44,258Z" fill="#D9A108" fill-opacity="1"/></g></g></svg>