<svg xmlns="http://www.w3.org/2000/svg" fill="none" viewBox="0 0 1236 360"><defs><clipPath id="a"><rect width="360" height="360" rx="0"/></clipPath></defs><g clip-path="url(#a)"><path fill="#3068B7" fill-rule="evenodd" d="M178.44 179.75q61.1 20.12 120.73 30.18l1.66-9.86q-58.87-9.94-119.27-29.82-60.39-19.88-119.3-49.71l-4.52 8.92q59.59 30.17 120.7 50.29Z"/><path fill="#23C8D2" fill-rule="evenodd" d="M300 250H60v-10h240v10Z"/><path fill="#FBBF24" fill-rule="evenodd" d="M178.79 198.35q46.23 11.56 120.47 22.6l1.47-9.9q-73.75-10.96-119.52-22.4-45.77-11.44-119.55-37.37l-3.32 9.44q74.22 26.07 120.45 37.63Z"/><path fill="#CA5BF2" fill-rule="evenodd" d="M178.97 215.9q26.26 5.55 120.53 15.07l1-9.94q-93.73-9.48-119.47-14.92l-120.01-25-2.04 9.78 119.99 25Z"/><path fill="#F5775B" fill-rule="evenodd" d="M179.5 233.47Q204.11 236 299.73 241l.52-9.98q-95.37-5-119.75-7.48l-120-12.5-1.03 9.94 120.01 12.5Z"/><path fill="#C12E8C" fill-rule="evenodd" d="M312.5 110.43q0-.4-.02-.79l-.08-.78q-.05-.39-.13-.77-.07-.39-.18-.77-.1-.38-.22-.75-.13-.37-.28-.73-.15-.37-.33-.72-.17-.35-.37-.7l-.41-.66q-.22-.33-.46-.64l-.5-.6q-.25-.3-.53-.58-.28-.27-.58-.53l-.6-.5q-.31-.24-.64-.46-.33-.22-.67-.41L186 30.46q-.34-.2-.7-.37-.34-.17-.7-.32l-.74-.28-.75-.22q-.38-.1-.77-.18-.38-.08-.77-.13l-.78-.08-.79-.02q-.4 0-.78.02-.4.03-.79.08t-.77.13q-.39.07-.77.18-.38.1-.75.22-.37.13-.73.28-.37.15-.72.32l-.69.37-120.5 69.58-.67.41q-.33.22-.64.46l-.6.5q-.3.26-.58.53-.27.28-.53.58l-.5.6q-.24.31-.46.64-.22.33-.41.67-.2.34-.37.7-.18.34-.33.7l-.28.74q-.12.37-.22.75t-.18.77q-.08.38-.13.77l-.08.78-.02.79v139.14q0 .4.02.79l.08.78q.05.39.13.77.08.39.18.77.1.38.23.75.12.37.27.73.15.37.33.72.17.35.37.7l.41.66.46.64.5.6q.26.3.53.58.28.28.58.53l.6.5q.31.24.64.46.33.22.67.41L174 329.54q.34.2.7.37.34.17.7.32l.74.28.75.23q.38.1.77.17.38.08.77.13l.78.08.79.02q.4 0 .78-.02.4-.03.79-.08t.77-.13q.39-.07.77-.18.38-.1.75-.22.37-.13.73-.28.37-.15.72-.32l.69-.37 120.5-69.58.67-.41.64-.46.6-.5q.3-.25.58-.53.27-.28.53-.58l.5-.6q.24-.31.46-.64.22-.33.41-.67.2-.34.37-.7.18-.34.33-.7l.28-.74q.12-.37.22-.75t.18-.77q.08-.38.13-.77l.08-.78.02-.79V110.43Zm-16 2.3L180 45.49 63.5 112.74v134.52L180 314.52l116.5-67.26V112.74Z"/><circle cx="180" cy="44" r="24" fill="#C12E8C"/><circle cx="180" cy="314" r="24" fill="#C12E8C"/><circle cx="61" cy="250" r="24" fill="#C12E8C"/><circle cx="304" cy="250" r="24" fill="#C12E8C"/><circle cx="61" cy="108" r="24" fill="#C12E8C"/><circle cx="304" cy="108" r="24" fill="#C12E8C"/></g><path fill="#D9A108" d="M513.62 260.52c18.36 0 34.2-7.02 43.38-16.02v-60.12h-47.52v21.78h23.58v26.28c-3.6 3.24-10.26 5.04-16.56 5.04-26.28 0-39.42-17.46-39.42-46.44 0-28.62 15.12-45.9 37.44-45.9 11.88 0 19.44 4.86 26.1 11.16l14.22-16.92c-8.64-8.82-21.96-17.1-41.22-17.1-35.46 0-63.9 25.74-63.9 69.66 0 44.46 27.72 68.58 63.9 68.58Zm124.74-21.78c-19.8 0-32.22-18-32.22-48.06 0-28.44 12.42-45.54 32.22-45.54 19.8 0 32.4 17.1 32.4 45.54 0 30.06-12.6 48.06-32.4 48.06Zm43.02 55.44c9.72 0 17.82-1.62 22.5-3.96l-4.86-19.62a46.58 46.58 0 0 1-14.58 2.34c-12.06 0-24.12-4.32-30.24-14.4 26.46-6.84 43.74-31.32 43.74-67.86 0-43.2-24.3-68.4-59.58-68.4s-59.58 25.2-59.58 68.4c0 38.16 18.9 63.18 47.34 68.76 9 20.16 28.08 34.74 55.26 34.74ZM724.04 258h80.82v-22.32h-54.18V124.62h-26.64V258Zm150.12 2.52c35.28 0 59.58-26.46 59.58-69.84 0-43.2-24.3-68.4-59.58-68.4s-59.58 25.2-59.58 68.4c0 43.38 24.3 69.84 59.58 69.84Zm0-23.04c-19.8 0-32.22-18.36-32.22-46.8 0-28.44 12.42-45.54 32.22-45.54 19.8 0 32.4 17.1 32.4 45.54 0 28.44-12.6 46.8-32.4 46.8Zm138.6 23.04c35.28 0 59.58-26.46 59.58-69.84 0-43.2-24.3-68.4-59.58-68.4s-59.58 25.2-59.58 68.4c0 43.38 24.3 69.84 59.58 69.84Zm0-23.04c-19.8 0-32.22-18.36-32.22-46.8 0-28.44 12.42-45.54 32.22-45.54 19.8 0 32.4 17.1 32.4 45.54 0 28.44-12.6 46.8-32.4 46.8Zm85.68 20.52h23.94v-55.62c0-12.78-2.16-31.14-3.42-43.74h.72l10.62 31.32 20.7 55.98h15.3l20.52-55.98 10.8-31.32h.9c-1.44 12.6-3.42 30.96-3.42 43.74V258h24.3V124.62h-29.52l-22.32 62.64c-2.7 8.1-5.04 16.92-7.92 25.38h-.9c-2.7-8.46-5.22-17.28-8.1-25.38l-22.68-62.64h-29.52V258Z"/></svg>