<svg xmlns="http://www.w3.org/2000/svg" xmlns:xlink="http://www.w3.org/1999/xlink" fill="none" version="1.1" width="1440" height="540" viewBox="0 0 1440 540"><defs><linearGradient x1="0.5" y1="0" x2="0.5" y2="1" id="master_svg0_205_019"><stop offset="0%" stop-color="#181C27" stop-opacity="1"/><stop offset="97.14285731315613%" stop-color="#1E2432" stop-opacity="1"/></linearGradient><clipPath id="master_svg1_205_7"><rect x="540" y="90" width="360" height="360" rx="0"/></clipPath></defs><g><rect x="0" y="0" width="1440" height="540" rx="0" fill="url(#master_svg0_205_019)" fill-opacity="1"/><g clip-path="url(#master_svg1_205_7)"><g transform="matrix(0.952150821685791,0.3056286573410034,-0.3056286573410034,0.952150821685791,94.41969043900644,-173.0896402983003)"><path d="M729.502072479248,230.93216103515624Q793.8360724792481,231.41096103515625,853.6810724792481,222.76991103515624L852.252072479248,212.87255103515625Q793.155072479248,221.40565103515624,729.577072479248,220.93239103515626Q665.998472479248,220.45911103515624,600.787286479248,210.06242103515626L599.2128584792481,219.93770103515624Q665.169172479248,230.45326103515626,729.502072479248,230.93216103515624Z" fill-rule="evenodd" fill="#3068B7" fill-opacity="1"/></g><g transform="matrix(1,-1.2434351326362503e-9,-5.479718456768978e-9,1,0.0000018357056887907675,7.460611186616006e-7)"><path d="M840.0000305175781,340L600.0000305175781,340L600.0000305175781,330L840.0000305175781,330L840.0000305175781,340Z" fill-rule="evenodd" fill="#23C8D2" fill-opacity="1"/></g><g transform="matrix(0.952150821685791,0.3056286573410034,-0.3056286573410034,0.952150821685791,99.41076990226429,-173.86066592446878)"><path d="M731.0050078125,250.79568232421875Q778.5620078125,247.67048232421874,852.6230078125,235.48808232421874L851.0000078125,225.62068232421876Q777.4200078125,237.72394232421874,730.3490078125,240.81718232421875Q683.2672078125,243.91128232421875,605.0943938125,241.77808232421876L604.8216218125,251.77438232421875Q683.4593078125,253.92018232421876,731.0050078125,250.79568232421875Z" fill-rule="evenodd" fill="#FBBF24" fill-opacity="1"/></g><g transform="matrix(0.952150821685791,0.3056286573410034,-0.3056286573410034,0.952150821685791,103.31649475658924,-175.07148908791714)"><path d="M733.18683203125,269.78964638671874Q759.89083203125,267.05274638671875,852.56083203125,247.31282638671874L850.47783203125,237.53226638671876Q758.33583203125,257.15984638671875,732.16683203125,259.84174638671874L610.25278703125,272.71504638671877L611.30287703125,282.6597463867188L733.18683203125,269.78964638671874Z" fill-rule="evenodd" fill="#CA5BF2" fill-opacity="1"/></g><g transform="matrix(0.952150821685791,0.3056286573410034,-0.3056286573410034,0.952150821685791,107.22224297477078,-176.28246148410835)"><path d="M735.71314453125,288.71641044921876Q759.92714453125,283.58321044921877,852.50414453125,259.12485044921874L849.95014453125,249.45657044921876Q757.61114453125,273.85191044921874,733.64014453125,278.93381044921875L615.57147453125,303.70511044921875L617.62481453125,313.49201044921875L735.71314453125,288.71641044921876Z" fill-rule="evenodd" fill="#F5775B" fill-opacity="1"/></g><g><path d="M852.502,200.4282Q852.502,200.03539999999998,852.476,199.64339999999999Q852.451,199.2514,852.399,198.8619Q852.348,198.4724,852.271,198.08710000000002Q852.1949999999999,197.7018,852.0930000000001,197.32240000000002Q851.991,196.9429,851.865,196.5709Q851.739,196.19889999999998,851.588,195.836Q851.438,195.4731,851.264,195.1207Q851.091,194.76839999999999,850.894,194.4282Q850.698,194.088,850.48,193.76139999999998Q850.261,193.43470000000002,850.0219999999999,193.1231Q849.783,192.8114,849.524,192.5161Q849.265,192.2207,848.9870000000001,191.9429Q848.7090000000001,191.6651,848.414,191.40609999999998Q848.119,191.1471,847.807,190.90800000000002Q847.495,190.6688,847.169,190.4506Q846.842,190.2323,846.502,190.0359L726,120.4641Q725.66,120.26768,725.307,120.09393Q724.955,119.92019,724.592,119.76985Q724.229,119.61952,723.857,119.49325Q723.485,119.36697,723.106,119.2653Q722.726,119.16362,722.341,119.08698Q721.956,119.01034,721.566,118.95907Q721.177,118.90779,720.785,118.8821Q720.393,118.85641,720,118.85641Q719.607,118.85641,719.215,118.8821Q718.823,118.90779,718.434,118.95907Q718.044,119.01034,717.659,119.08698Q717.274,119.16362,716.894,119.2653Q716.515,119.36697,716.143,119.49325Q715.771,119.61952,715.408,119.76985Q715.045,119.92019,714.693,120.09393Q714.34,120.26768,714,120.4641L593.4981,190.0359Q593.1579,190.2323,592.8313,190.4506Q592.5046,190.6688,592.193,190.90800000000002Q591.8813,191.1471,591.586,191.40609999999998Q591.2906,191.6652,591.0128,191.9429Q590.7351,192.2207,590.476,192.5161Q590.217,192.8114,589.9779,193.1231Q589.7387,193.43470000000002,589.5205,193.76139999999998Q589.3022,194.088,589.1058,194.4282Q588.9094,194.76839999999999,588.7356,195.1208Q588.5619,195.4731,588.4116,195.836Q588.2612,196.199,588.1349,196.5709Q588.0087,196.9429,587.907,197.32240000000002Q587.8053,197.7018,587.7287,198.08710000000002Q587.652,198.4724,587.6008,198.8619Q587.5495,199.2514,587.5238,199.64339999999999Q587.4981,200.03539999999998,587.4981,200.4282L587.4981,339.572Q587.4981,339.96500000000003,587.5238,340.35699999999997Q587.5495,340.749,587.6008,341.13800000000003Q587.6521,341.528,587.7287,341.913Q587.8053,342.298,587.907,342.678Q588.0087,343.057,588.135,343.429Q588.2612,343.801,588.4116,344.164Q588.5619,344.527,588.7356,344.879Q588.9094,345.23199999999997,589.1058,345.572Q589.3022,345.91200000000003,589.5205,346.23900000000003Q589.7387,346.565,589.9779,346.877Q590.217,347.18899999999996,590.476,347.48400000000004Q590.7351,347.779,591.0128,348.057Q591.2906,348.33500000000004,591.586,348.594Q591.8813,348.853,592.193,349.092Q592.5046,349.331,592.8313,349.549Q593.1579,349.76800000000003,593.4981,349.964L714,419.536Q714.34,419.732,714.693,419.906Q715.045,420.08,715.408,420.23Q715.771,420.38,716.143,420.507Q716.515,420.633,716.894,420.735Q717.274,420.836,717.659,420.913Q718.044,420.99,718.434,421.041Q718.823,421.092,719.215,421.118Q719.607,421.144,720,421.144Q720.393,421.144,720.785,421.118Q721.177,421.092,721.566,421.041Q721.956,420.99,722.341,420.913Q722.726,420.836,723.106,420.735Q723.485,420.633,723.857,420.507Q724.229,420.38,724.592,420.23Q724.955,420.08,725.307,419.906Q725.66,419.732,726,419.536L846.502,349.964Q846.842,349.76800000000003,847.169,349.549Q847.495,349.331,847.807,349.092Q848.119,348.853,848.414,348.594Q848.7090000000001,348.33500000000004,848.9870000000001,348.057Q849.265,347.779,849.524,347.48400000000004Q849.783,347.18899999999996,850.0219999999999,346.877Q850.261,346.565,850.48,346.23900000000003Q850.698,345.91200000000003,850.894,345.572Q851.091,345.23199999999997,851.264,344.879Q851.438,344.527,851.588,344.164Q851.739,343.801,851.865,343.429Q851.991,343.057,852.0930000000001,342.678Q852.1949999999999,342.298,852.271,341.913Q852.348,341.528,852.399,341.13800000000003Q852.451,340.749,852.476,340.35699999999997Q852.502,339.96500000000003,852.502,339.572L852.502,200.4282ZM836.502,202.7376L720,135.4752L603.4981,202.7376L603.4981,337.262L720,404.525L836.502,337.262L836.502,202.7376Z" fill-rule="evenodd" fill="#C12E8C" fill-opacity="1"/></g><g><ellipse cx="720" cy="134" rx="24" ry="24" fill="#C12E8C" fill-opacity="1"/></g><g><ellipse cx="720" cy="404" rx="24" ry="24" fill="#C12E8C" fill-opacity="1"/></g><g><ellipse cx="601" cy="340" rx="24" ry="24" fill="#C12E8C" fill-opacity="1"/></g><g><ellipse cx="844" cy="340" rx="24" ry="24" fill="#C12E8C" fill-opacity="1"/></g><g><ellipse cx="601" cy="198" rx="24" ry="24" fill="#C12E8C" fill-opacity="1"/></g><g><ellipse cx="844" cy="198" rx="24" ry="24" fill="#C12E8C" fill-opacity="1"/></g></g></g></svg>