<svg xmlns="http://www.w3.org/2000/svg" xmlns:xlink="http://www.w3.org/1999/xlink" fill="none" version="1.1" width="1440" height="540" viewBox="0 0 1440 540"><defs><linearGradient x1="0.5" y1="0" x2="0.5" y2="1" id="master_svg0_205_019"><stop offset="0%" stop-color="#181C27" stop-opacity="1"/><stop offset="97.14285731315613%" stop-color="#1E2432" stop-opacity="1"/></linearGradient><clipPath id="master_svg1_205_7"><rect x="313" y="90" width="360" height="360" rx="0"/></clipPath></defs><g><rect x="0" y="0" width="1440" height="540" rx="0" fill="url(#master_svg0_205_019)" fill-opacity="1"/><g><g clip-path="url(#master_svg1_205_7)"><g transform="matrix(0.952150821685791,0.3056286573410034,-0.3056286573410034,0.952150821685791,83.557926961681,-103.71193508189253)"><path d="M502.50207247924806,230.93216103515624Q566.8360724792481,231.41096103515625,626.6810724792481,222.76991103515624L625.252072479248,212.87255103515625Q566.155072479248,221.40565103515624,502.57707247924805,220.93239103515626Q438.99847247924805,220.45911103515624,373.78728647924805,210.06242103515626L372.21285847924804,219.93770103515624Q438.16917247924806,230.45326103515626,502.50207247924806,230.93216103515624Z" fill-rule="evenodd" fill="#3068B7" fill-opacity="1"/></g><g transform="matrix(1,-1.2434351326362503e-9,-5.479718456768978e-9,1,0.0000018357056887907675,4.638013706426136e-7)"><path d="M613.0000305175781,340L373.0000305175781,340L373.0000305175781,330L613.0000305175781,330L613.0000305175781,340Z" fill-rule="evenodd" fill="#23C8D2" fill-opacity="1"/></g><g transform="matrix(0.952150821685791,0.3056286573410034,-0.3056286573410034,0.952150821685791,88.54900642493885,-104.482960708061)"><path d="M504.0050078125,250.79568232421875Q551.5620078125,247.67048232421874,625.6230078125,235.48808232421874L624.0000078125,225.62068232421876Q550.4200078125,237.72394232421874,503.3490078125,240.81718232421875Q456.26720781250003,243.91128232421875,378.0943938125,241.77808232421876L377.8216218125,251.77438232421875Q456.4593078125,253.92018232421876,504.0050078125,250.79568232421875Z" fill-rule="evenodd" fill="#FBBF24" fill-opacity="1"/></g><g transform="matrix(0.952150821685791,0.3056286573410034,-0.3056286573410034,0.952150821685791,92.4547312792638,-105.69378387150937)"><path d="M506.18683203125,269.78964638671874Q532.89083203125,267.05274638671875,625.56083203125,247.31282638671874L623.47783203125,237.53226638671876Q531.33583203125,257.15984638671875,505.16683203125,259.84174638671874L383.25278703125,272.71504638671877L384.30287703125,282.6597463867188L506.18683203125,269.78964638671874Z" fill-rule="evenodd" fill="#CA5BF2" fill-opacity="1"/></g><g transform="matrix(0.952150821685791,0.3056286573410034,-0.3056286573410034,0.952150821685791,96.36047949744534,-106.90475626770058)"><path d="M508.71314453125,288.71641044921876Q532.92714453125,283.58321044921877,625.50414453125,259.12485044921874L622.95014453125,249.45657044921876Q530.61114453125,273.85191044921874,506.64014453125003,278.93381044921875L388.57147453125,303.70511044921875L390.62481453125,313.49201044921875L508.71314453125,288.71641044921876Z" fill-rule="evenodd" fill="#F5775B" fill-opacity="1"/></g><g><path d="M625.502,200.4282Q625.502,200.03539999999998,625.476,199.64339999999999Q625.451,199.2514,625.399,198.8619Q625.348,198.4724,625.271,198.08710000000002Q625.1949999999999,197.7018,625.0930000000001,197.32240000000002Q624.991,196.9429,624.865,196.5709Q624.739,196.19889999999998,624.588,195.836Q624.438,195.4731,624.264,195.1207Q624.091,194.76839999999999,623.894,194.4282Q623.698,194.088,623.48,193.76139999999998Q623.261,193.43470000000002,623.0219999999999,193.1231Q622.783,192.8114,622.524,192.5161Q622.265,192.2207,621.9870000000001,191.9429Q621.7090000000001,191.6651,621.414,191.40609999999998Q621.119,191.1471,620.807,190.90800000000002Q620.495,190.6688,620.169,190.4506Q619.842,190.2323,619.502,190.0359L499,120.4641Q498.65999999999997,120.26768,498.307,120.09393Q497.95500000000004,119.92019,497.592,119.76985Q497.22900000000004,119.61952,496.85699999999997,119.49325Q496.485,119.36697,496.106,119.2653Q495.726,119.16362,495.341,119.08698Q494.956,119.01034,494.56600000000003,118.95907Q494.177,118.90779,493.78499999999997,118.8821Q493.39300000000003,118.85641,493,118.85641Q492.60699999999997,118.85641,492.21500000000003,118.8821Q491.823,118.90779,491.43399999999997,118.95907Q491.044,119.01034,490.659,119.08698Q490.274,119.16362,489.894,119.2653Q489.515,119.36697,489.14300000000003,119.49325Q488.77099999999996,119.61952,488.408,119.76985Q488.04499999999996,119.92019,487.693,120.09393Q487.34000000000003,120.26768,487,120.4641L366.4981,190.0359Q366.1579,190.2323,365.8313,190.4506Q365.5046,190.6688,365.193,190.90800000000002Q364.8813,191.1471,364.586,191.40609999999998Q364.2906,191.6652,364.01279999999997,191.9429Q363.7351,192.2207,363.476,192.5161Q363.217,192.8114,362.9779,193.1231Q362.7387,193.43470000000002,362.52049999999997,193.76139999999998Q362.30219999999997,194.088,362.1058,194.4282Q361.9094,194.76839999999999,361.7356,195.1208Q361.5619,195.4731,361.4116,195.836Q361.2612,196.199,361.1349,196.5709Q361.0087,196.9429,360.907,197.32240000000002Q360.8053,197.7018,360.7287,198.08710000000002Q360.652,198.4724,360.6008,198.8619Q360.5495,199.2514,360.5238,199.64339999999999Q360.4981,200.03539999999998,360.4981,200.4282L360.4981,339.572Q360.4981,339.96500000000003,360.5238,340.35699999999997Q360.5495,340.749,360.6008,341.13800000000003Q360.6521,341.528,360.7287,341.913Q360.8053,342.298,360.907,342.678Q361.0087,343.057,361.135,343.429Q361.2612,343.801,361.4116,344.164Q361.5619,344.527,361.7356,344.879Q361.9094,345.23199999999997,362.1058,345.572Q362.30219999999997,345.91200000000003,362.52049999999997,346.23900000000003Q362.7387,346.565,362.9779,346.877Q363.217,347.18899999999996,363.476,347.48400000000004Q363.7351,347.779,364.01279999999997,348.057Q364.2906,348.33500000000004,364.586,348.594Q364.8813,348.853,365.193,349.092Q365.5046,349.331,365.8313,349.549Q366.1579,349.76800000000003,366.4981,349.964L487,419.536Q487.34000000000003,419.732,487.693,419.906Q488.04499999999996,420.08,488.408,420.23Q488.77099999999996,420.38,489.14300000000003,420.507Q489.515,420.633,489.894,420.735Q490.274,420.836,490.659,420.913Q491.044,420.99,491.43399999999997,421.041Q491.823,421.092,492.21500000000003,421.118Q492.60699999999997,421.144,493,421.144Q493.39300000000003,421.144,493.78499999999997,421.118Q494.177,421.092,494.56600000000003,421.041Q494.956,420.99,495.341,420.913Q495.726,420.836,496.106,420.735Q496.485,420.633,496.85699999999997,420.507Q497.22900000000004,420.38,497.592,420.23Q497.95500000000004,420.08,498.307,419.906Q498.65999999999997,419.732,499,419.536L619.502,349.964Q619.842,349.76800000000003,620.169,349.549Q620.495,349.331,620.807,349.092Q621.119,348.853,621.414,348.594Q621.7090000000001,348.33500000000004,621.9870000000001,348.057Q622.265,347.779,622.524,347.48400000000004Q622.783,347.18899999999996,623.0219999999999,346.877Q623.261,346.565,623.48,346.23900000000003Q623.698,345.91200000000003,623.894,345.572Q624.091,345.23199999999997,624.264,344.879Q624.438,344.527,624.588,344.164Q624.739,343.801,624.865,343.429Q624.991,343.057,625.0930000000001,342.678Q625.1949999999999,342.298,625.271,341.913Q625.348,341.528,625.399,341.13800000000003Q625.451,340.749,625.476,340.35699999999997Q625.502,339.96500000000003,625.502,339.572L625.502,200.4282ZM609.502,202.7376L493,135.4752L376.4981,202.7376L376.4981,337.262L493,404.525L609.502,337.262L609.502,202.7376Z" fill-rule="evenodd" fill="#C12E8C" fill-opacity="1"/></g><g><ellipse cx="493" cy="134" rx="24" ry="24" fill="#C12E8C" fill-opacity="1"/></g><g><ellipse cx="493" cy="404" rx="24" ry="24" fill="#C12E8C" fill-opacity="1"/></g><g><ellipse cx="374" cy="340" rx="24" ry="24" fill="#C12E8C" fill-opacity="1"/></g><g><ellipse cx="617" cy="340" rx="24" ry="24" fill="#C12E8C" fill-opacity="1"/></g><g><ellipse cx="374" cy="198" rx="24" ry="24" fill="#C12E8C" fill-opacity="1"/></g><g><ellipse cx="617" cy="198" rx="24" ry="24" fill="#C12E8C" fill-opacity="1"/></g></g><g><path d="M788.992,309.23199999999997C797.968,309.23199999999997,805.712,305.8,810.2,301.4L810.2,272.008L786.968,272.008L786.968,282.656L798.496,282.656L798.496,295.504C796.736,297.08799999999997,793.48,297.968,790.4,297.968C777.552,297.968,771.128,289.432,771.128,275.264C771.128,261.272,778.52,252.824,789.432,252.824C795.24,252.824,798.936,255.2,802.192,258.28L809.144,250.008C804.92,245.696,798.408,241.648,788.992,241.648C771.656,241.648,757.752,254.232,757.752,275.704C757.752,297.44,771.304,309.23199999999997,788.992,309.23199999999997ZM849.976,298.584C840.296,298.584,834.224,289.784,834.224,275.08799999999997C834.224,261.18399999999997,840.296,252.824,849.976,252.824C859.656,252.824,865.816,261.18399999999997,865.816,275.08799999999997C865.816,289.784,859.656,298.584,849.976,298.584ZM871.008,325.688C875.76,325.688,879.72,324.896,882.008,323.752L879.6320000000001,314.15999999999997C877.784,314.776,875.3199999999999,315.304,872.504,315.304C866.608,315.304,860.712,313.192,857.72,308.264C870.656,304.92,879.104,292.952,879.104,275.08799999999997C879.104,253.96800000000002,867.224,241.648,849.976,241.648C832.728,241.648,820.848,253.96800000000002,820.848,275.08799999999997C820.848,293.744,830.088,305.976,843.992,308.704C848.392,318.56,857.72,325.688,871.008,325.688ZM891.864,308L931.376,308L931.376,297.08799999999997L904.888,297.08799999999997L904.888,242.792L891.864,242.792L891.864,308ZM965.256,309.23199999999997C982.504,309.23199999999997,994.384,296.296,994.384,275.08799999999997C994.384,253.96800000000002,982.504,241.648,965.256,241.648C948.008,241.648,936.1279999999999,253.96800000000002,936.1279999999999,275.08799999999997C936.1279999999999,296.296,948.008,309.23199999999997,965.256,309.23199999999997ZM965.256,297.968C955.576,297.968,949.504,288.992,949.504,275.08799999999997C949.504,261.18399999999997,955.576,252.824,965.256,252.824C974.936,252.824,981.096,261.18399999999997,981.096,275.08799999999997C981.096,288.992,974.936,297.968,965.256,297.968ZM1033.016,309.23199999999997C1050.2640000000001,309.23199999999997,1062.144,296.296,1062.144,275.08799999999997C1062.144,253.96800000000002,1050.2640000000001,241.648,1033.016,241.648C1015.768,241.648,1003.888,253.96800000000002,1003.888,275.08799999999997C1003.888,296.296,1015.768,309.23199999999997,1033.016,309.23199999999997ZM1033.016,297.968C1023.336,297.968,1017.264,288.992,1017.264,275.08799999999997C1017.264,261.18399999999997,1023.336,252.824,1033.016,252.824C1042.696,252.824,1048.856,261.18399999999997,1048.856,275.08799999999997C1048.856,288.992,1042.696,297.968,1033.016,297.968ZM1074.904,308L1086.608,308L1086.608,280.808C1086.608,274.56,1085.5520000000001,265.584,1084.936,259.424L1085.288,259.424L1090.48,274.736L1100.6,302.104L1108.08,302.104L1118.112,274.736L1123.392,259.424L1123.8319999999999,259.424C1123.128,265.584,1122.16,274.56,1122.16,280.808L1122.16,308L1134.04,308L1134.04,242.792L1119.608,242.792L1108.696,273.416C1107.376,277.376,1106.232,281.688,1104.824,285.824L1104.384,285.824C1103.064,281.688,1101.8319999999999,277.376,1100.424,273.416L1089.336,242.792L1074.904,242.792L1074.904,308Z" fill="#F4D47C" fill-opacity="1"/></g></g></g></svg>